<svg width="18" height="18" viewBox="0 0 18 18" fill="none" xmlns="http://www.w3.org/2000/svg">
<g clip-path="url(#clip0_1285_724)">
<path d="M14.4 0H3.6C1.61177 0 0 1.61177 0 3.6V14.4C0 16.3882 1.61177 18 3.6 18H14.4C16.3882 18 18 16.3882 18 14.4V3.6C18 1.61177 16.3882 0 14.4 0Z" fill="white"/>
<g clip-path="url(#clip1_1285_724)">
<path d="M11.3827 7.4166V10.0089L9.04688 11.3053V12.9256L12.8438 10.8193V6.6062L11.3827 7.4166Z" fill="#00AC69"/>
<path d="M9.04688 6.1208L11.3827 7.4167L12.8438 6.6063L9.04688 4.5L5.25 6.6063L6.71049 7.4167L9.04688 6.1208Z" fill="#1CE783"/>
<path d="M7.58638 9.52341V12.1157L9.04688 12.9256V8.71301L5.25 6.6062V8.227L7.58638 9.52341Z" fill="#1D252C"/>
</g>
<path d="M13.05 2.25H4.95C3.45883 2.25 2.25 3.45883 2.25 4.95V13.05C2.25 14.5412 3.45883 15.75 4.95 15.75H13.05C14.5412 15.75 15.75 14.5412 15.75 13.05V4.95C15.75 3.45883 14.5412 2.25 13.05 2.25Z" fill="white"/>
<g clip-path="url(#clip2_1285_724)">
<path fill-rule="evenodd" clip-rule="evenodd" d="M9.4999 6.4209C9.07294 6.4209 8.71891 6.529 8.43631 6.71779C8.19045 6.88401 7.99205 7.11218 7.86192 7.37891L7.86084 7.38127C7.80641 7.50061 7.80041 7.63641 7.84412 7.76008C7.88783 7.88374 7.97784 7.98562 8.09517 8.04424C8.2125 8.10286 8.34801 8.11366 8.47314 8.07435C8.59828 8.03505 8.70332 7.94873 8.76606 7.83355L8.76756 7.83057C8.82232 7.72153 8.89697 7.62719 8.99844 7.55985C9.09629 7.49386 9.24956 7.4334 9.4999 7.4334C9.68952 7.4334 9.87454 7.49216 9.99996 7.58622L10.0023 7.58789C10.0584 7.62749 10.1038 7.68035 10.1346 7.74177C10.1653 7.80319 10.1803 7.87125 10.1783 7.93989V7.94277C10.1783 8.16263 10.083 8.31671 9.87448 8.51184C9.80405 8.57646 9.73109 8.63958 9.65702 8.70001C9.603 8.74486 9.54933 8.79032 9.4962 8.83622C9.36129 8.95303 9.20219 9.10173 9.07856 9.28717L8.99365 9.41521V10.3126C8.99365 10.4468 9.04699 10.5756 9.14193 10.6705C9.23687 10.7655 9.36564 10.8188 9.4999 10.8188C9.63417 10.8188 9.76294 10.7655 9.85788 10.6705C9.95282 10.5756 10.0062 10.4468 10.0062 10.3126V9.74514C10.047 9.70237 10.0974 9.65509 10.1599 9.60086C10.1929 9.57205 10.2342 9.53769 10.2788 9.50067L10.306 9.47779L10.306 9.47777C10.3889 9.40797 10.4832 9.32853 10.5643 9.25242C10.8633 8.97353 11.1906 8.5699 11.1908 7.94336C11.1934 7.71635 11.1417 7.492 11.0402 7.28894C10.9387 7.0859 10.7902 6.91 10.6071 6.77587C10.2817 6.5315 9.87432 6.4209 9.4999 6.4209ZM9.90625 9.70599L9.98048 9.77279C9.98861 9.76377 9.99716 9.75456 10.0062 9.74514V9.7059H9.90625V9.70599ZM9.09375 9.44536V9.44542L9.09365 9.44536H9.09375ZM9.4999 11.2959C9.32972 11.2959 9.16651 11.3635 9.04618 11.4838C8.92584 11.6042 8.85824 11.7674 8.85824 11.9376C8.85824 12.1077 8.92584 12.271 9.04618 12.3913C9.16651 12.5116 9.32972 12.5792 9.4999 12.5792C9.67008 12.5792 9.8333 12.5116 9.95363 12.3913C10.074 12.271 10.1416 12.1077 10.1416 11.9376C10.1416 11.7674 10.074 11.6042 9.95363 11.4838C9.8333 11.3635 9.67008 11.2959 9.4999 11.2959Z" fill="black"/>
<path d="M8.34302 3.65002C8.67853 3.40378 9.08385 3.271 9.50002 3.271C9.9162 3.271 10.3215 3.40378 10.657 3.65002L11.4018 4.19711C11.5502 4.30544 11.723 4.37748 11.905 4.40511L12.8183 4.5454C13.2296 4.60847 13.6101 4.80111 13.9044 5.09531C14.1987 5.38951 14.3914 5.76993 14.4546 6.18123L14.5949 7.09502C14.6226 7.27702 14.6941 7.44981 14.8029 7.59823L15.35 8.34302C15.5963 8.67853 15.7291 9.08385 15.7291 9.50002C15.7291 9.9162 15.5963 10.3215 15.35 10.657L14.8029 11.4018C14.694 11.5503 14.6226 11.723 14.5949 11.905L14.4546 12.8183C14.3916 13.2296 14.1989 13.6101 13.9047 13.9044C13.6105 14.1987 13.2301 14.3914 12.8188 14.4546L11.905 14.5949C11.723 14.6226 11.5503 14.694 11.4018 14.8029L10.657 15.35C10.3215 15.5963 9.9162 15.7291 9.50002 15.7291C9.08385 15.7291 8.67853 15.5963 8.34302 15.35L7.59823 14.8029C7.44974 14.694 7.27709 14.6226 7.09502 14.5949L6.18177 14.4546C5.77045 14.3916 5.38997 14.1989 5.09567 13.9047C4.80137 13.6105 4.6086 13.2301 4.5454 12.8188L4.40511 11.905C4.37741 11.723 4.30604 11.5503 4.19711 11.4018L3.65002 10.657C3.40378 10.3215 3.271 9.9162 3.271 9.50002C3.271 9.08385 3.40378 8.67853 3.65002 8.34302L4.19711 7.59823C4.30598 7.44981 4.37748 7.27702 4.40511 7.09502L4.5454 6.18177C4.60847 5.77045 4.80111 5.38997 5.09531 5.09567C5.38951 4.80137 5.76993 4.6086 6.18123 4.5454L7.09502 4.40511C7.27702 4.37748 7.44981 4.30598 7.59823 4.19711L8.34302 3.65002ZM10.176 4.3049C9.97997 4.16109 9.74317 4.08355 9.50002 4.08355C9.25688 4.08355 9.02007 4.16109 8.82402 4.3049L8.07869 4.85198C7.82469 5.03839 7.52941 5.16067 7.21798 5.2084L6.30473 5.34815C6.06426 5.38509 5.84184 5.49777 5.6698 5.6698C5.49777 5.84184 5.38509 6.06426 5.34815 6.30473L5.2084 7.21798C5.16067 7.52957 5.0384 7.82503 4.85198 8.07923L4.3049 8.82402C4.16109 9.02007 4.08355 9.25688 4.08355 9.50002C4.08355 9.74317 4.16109 9.97997 4.3049 10.176L4.85198 10.9214C5.03839 11.1754 5.16067 11.4706 5.2084 11.7821L5.34815 12.6953C5.38511 12.9357 5.49781 13.1581 5.66985 13.33C5.84189 13.502 6.0643 13.6145 6.30473 13.6514L7.21798 13.7922C7.52953 13.8397 7.82499 13.9618 8.07923 14.1481L8.82402 14.6951C9.02007 14.839 9.25688 14.9165 9.50002 14.9165C9.74317 14.9165 9.97997 14.839 10.176 14.6951L10.9214 14.1481C11.1754 13.9617 11.4706 13.8394 11.7821 13.7916L12.6953 13.6519C12.9357 13.6149 13.1581 13.5022 13.33 13.3302C13.502 13.1582 13.6145 12.9357 13.6514 12.6953L13.7922 11.7821C13.8397 11.4705 13.9618 11.1751 14.1481 10.9208L14.6951 10.176C14.839 9.97997 14.9165 9.74317 14.9165 9.50002C14.9165 9.25688 14.839 9.02007 14.6951 8.82402L14.1481 8.07869C13.9617 7.82469 13.8394 7.52941 13.7916 7.21798L13.6519 6.30473C13.615 6.06426 13.5023 5.84184 13.3302 5.6698C13.1582 5.49777 12.9358 5.38509 12.6953 5.34815L11.7821 5.2084C11.4705 5.16067 11.175 5.0384 10.9208 4.85198L10.176 4.3049Z" fill="black" stroke="black" stroke-width="0.2"/>
</g>
</g>
<defs>
<clipPath id="clip0_1285_724">
<rect width="18" height="18" rx="2" fill="white"/>
</clipPath>
<clipPath id="clip1_1285_724">
<rect width="7.59375" height="8.4375" fill="white" transform="translate(5.25 4.5)"/>
</clipPath>
<clipPath id="clip2_1285_724">
<rect width="13" height="13" fill="white" transform="translate(3 3)"/>
</clipPath>
</defs>
</svg>
