<svg width="13" height="13" viewBox="0 0 13 13" fill="none" xmlns="http://www.w3.org/2000/svg">
<g id="Frame" clip-path="url(#clip0_1285_834)">
<path id="Union" fill-rule="evenodd" clip-rule="evenodd" d="M6.4999 3.4209C6.07294 3.4209 5.71891 3.529 5.43631 3.71779C5.19045 3.88401 4.99205 4.11218 4.86192 4.37891L4.86084 4.38127C4.80641 4.50061 4.80041 4.63641 4.84412 4.76008C4.88783 4.88374 4.97784 4.98562 5.09517 5.04424C5.2125 5.10286 5.34801 5.11366 5.47314 5.07435C5.59828 5.03505 5.70332 4.94873 5.76606 4.83355L5.76756 4.83057C5.82232 4.72153 5.89697 4.62719 5.99844 4.55985C6.09629 4.49386 6.24956 4.4334 6.4999 4.4334C6.68952 4.4334 6.87454 4.49216 6.99996 4.58622L7.00232 4.58789C7.05842 4.62749 7.10384 4.68035 7.13455 4.74177C7.16526 4.80319 7.18026 4.87125 7.17828 4.93989V4.94277C7.17828 5.16263 7.08302 5.31671 6.87448 5.51184C6.80405 5.57646 6.73109 5.63958 6.65702 5.70001C6.603 5.74486 6.54933 5.79032 6.4962 5.83622C6.36129 5.95303 6.20219 6.10173 6.07856 6.28717L5.99365 6.41521V7.31257C5.99365 7.44683 6.04699 7.5756 6.14193 7.67054C6.23687 7.76548 6.36564 7.81882 6.4999 7.81882C6.63417 7.81882 6.76294 7.76548 6.85788 7.67054C6.95282 7.5756 7.00615 7.44683 7.00615 7.31257V6.74514C7.04701 6.70237 7.0974 6.65509 7.15988 6.60086C7.19287 6.57205 7.2342 6.53769 7.27883 6.50067L7.306 6.47779L7.30601 6.47777C7.3889 6.40797 7.48323 6.32853 7.56435 6.25242C7.86329 5.97353 8.19057 5.5699 8.19078 4.94336C8.19336 4.71635 8.14174 4.492 8.04021 4.28894C7.93869 4.0859 7.79019 3.91 7.60706 3.77587C7.28173 3.5315 6.87432 3.4209 6.4999 3.4209ZM6.90625 6.70599L6.98048 6.77279C6.98861 6.76377 6.99716 6.75456 7.00615 6.74514V6.7059H6.90625V6.70599ZM6.09375 6.44536V6.44542L6.09365 6.44536H6.09375ZM6.4999 8.2959C6.32972 8.2959 6.16651 8.3635 6.04618 8.48384C5.92584 8.60417 5.85824 8.76738 5.85824 8.93757C5.85824 9.10775 5.92584 9.27096 6.04618 9.39129C6.16651 9.51163 6.32972 9.57923 6.4999 9.57923C6.67008 9.57923 6.8333 9.51163 6.95363 9.39129C7.07397 9.27096 7.14157 9.10775 7.14157 8.93757C7.14157 8.76738 7.07397 8.60417 6.95363 8.48384C6.8333 8.3635 6.67008 8.2959 6.4999 8.2959Z" fill="black"/>
<path id="Vector" d="M5.34302 0.650023C5.67853 0.403777 6.08385 0.270996 6.50002 0.270996C6.9162 0.270996 7.32152 0.403777 7.65702 0.650023L8.40181 1.19711C8.55023 1.30544 8.72302 1.37748 8.90502 1.40511L9.81827 1.5454C10.2296 1.60847 10.6101 1.80111 10.9044 2.09531C11.1987 2.38951 11.3914 2.76993 11.4546 3.18123L11.5949 4.09502C11.6226 4.27702 11.6941 4.44981 11.8029 4.59823L12.35 5.34302C12.5963 5.67853 12.7291 6.08385 12.7291 6.50002C12.7291 6.9162 12.5963 7.32152 12.35 7.65702L11.8029 8.40181C11.694 8.5503 11.6226 8.72296 11.5949 8.90502L11.4546 9.81827C11.3916 10.2296 11.1989 10.6101 10.9047 10.9044C10.6105 11.1987 10.2301 11.3914 9.81882 11.4546L8.90502 11.5949C8.72296 11.6226 8.5503 11.694 8.40181 11.8029L7.65702 12.35C7.32152 12.5963 6.9162 12.7291 6.50002 12.7291C6.08385 12.7291 5.67853 12.5963 5.34302 12.35L4.59823 11.8029C4.44974 11.694 4.27709 11.6226 4.09502 11.5949L3.18177 11.4546C2.77045 11.3916 2.38997 11.1989 2.09567 10.9047C1.80137 10.6105 1.6086 10.2301 1.5454 9.81882L1.40511 8.90502C1.37741 8.72296 1.30604 8.5503 1.19711 8.40181L0.650023 7.65702C0.403777 7.32152 0.270996 6.9162 0.270996 6.50002C0.270996 6.08385 0.403777 5.67853 0.650023 5.34302L1.19711 4.59823C1.30598 4.44981 1.37748 4.27702 1.40511 4.09502L1.5454 3.18177C1.60847 2.77045 1.80111 2.38997 2.09531 2.09567C2.38951 1.80137 2.76993 1.6086 3.18123 1.5454L4.09502 1.40511C4.27702 1.37748 4.44981 1.30598 4.59823 1.19711L5.34302 0.650023ZM7.17602 1.3049C6.97997 1.16109 6.74317 1.08355 6.50002 1.08355C6.25688 1.08355 6.02007 1.16109 5.82402 1.3049L5.07869 1.85198C4.82469 2.03839 4.52941 2.16067 4.21798 2.2084L3.30473 2.34815C3.06426 2.38509 2.84184 2.49777 2.6698 2.6698C2.49777 2.84184 2.38509 3.06426 2.34815 3.30473L2.2084 4.21798C2.16067 4.52957 2.0384 4.82503 1.85198 5.07923L1.3049 5.82402C1.16109 6.02007 1.08355 6.25688 1.08355 6.50002C1.08355 6.74317 1.16109 6.97997 1.3049 7.17602L1.85198 7.92136C2.03839 8.17536 2.16067 8.47064 2.2084 8.78206L2.34815 9.69532C2.38511 9.93572 2.49781 10.1581 2.66985 10.33C2.84189 10.502 3.0643 10.6145 3.30473 10.6514L4.21798 10.7922C4.52953 10.8397 4.82499 10.9618 5.07923 11.1481L5.82402 11.6951C6.02007 11.839 6.25688 11.9165 6.50002 11.9165C6.74317 11.9165 6.97997 11.839 7.17602 11.6951L7.92136 11.1481C8.17536 10.9617 8.47064 10.8394 8.78206 10.7916L9.69532 10.6519C9.93572 10.6149 10.1581 10.5022 10.33 10.3302C10.502 10.1582 10.6145 9.93574 10.6514 9.69532L10.7922 8.78206C10.8397 8.47051 10.9618 8.17506 11.1481 7.92081L11.6951 7.17602C11.839 6.97997 11.9165 6.74317 11.9165 6.50002C11.9165 6.25688 11.839 6.02007 11.6951 5.82402L11.1481 5.07869C10.9617 4.82469 10.8394 4.52941 10.7916 4.21798L10.6519 3.30473C10.615 3.06426 10.5023 2.84184 10.3302 2.6698C10.1582 2.49777 9.93579 2.38509 9.69532 2.34815L8.78206 2.2084C8.47047 2.16067 8.17501 2.0384 7.92081 1.85198L7.17602 1.3049Z" fill="black" stroke="black" stroke-width="0.2"/>
</g>
<defs>
<clipPath id="clip0_1285_834">
<rect width="13" height="13" fill="white"/>
</clipPath>
</defs>
</svg>
